<?xml version="1.0" encoding="UTF-8"?>
<svg width="7pt" height="7pt" version="1.1" viewBox="0 0 7 7" xmlns="http://www.w3.org/2000/svg" xmlns:xlink="http://www.w3.org/1999/xlink">
 <defs>
  <symbol id="s" overflow="visible">
   <path d="m27.734-1.6562c-1.4297 0.74219-2.918 1.2969-4.4688 1.6719-1.5547 0.38281-3.1719 0.57812-4.8594 0.57812-5.0234 0-9-1.4062-11.938-4.2188s-4.4062-6.625-4.4062-11.438c0-4.8203 1.4688-8.6328 4.4062-11.438 2.9375-2.8125 6.9141-4.2188 11.938-4.2188 1.6875 0 3.3047 0.1875 4.8594 0.5625 1.5508 0.375 3.0391 0.9375 4.4688 1.6875v6.2344c-1.4492-0.97656-2.875-1.6953-4.2812-2.1562-1.3984-0.45703-2.8711-0.6875-4.4219-0.6875-2.7734 0-4.9531 0.89062-6.5469 2.6719-1.5859 1.7734-2.375 4.2188-2.375 7.3438 0 3.1172 0.78906 5.5625 2.375 7.3438 1.5938 1.7812 3.7734 2.6719 6.5469 2.6719 1.5508 0 3.0234-0.22656 4.4219-0.6875 1.4062-0.45703 2.832-1.1797 4.2812-2.1719z"/>
  </symbol>
  <symbol id="d" overflow="visible">
   <path d="m20.297-16.469c-0.63672-0.30078-1.2656-0.51953-1.8906-0.65625-0.625-0.14453-1.2578-0.21875-1.8906-0.21875-1.8672 0-3.2969 0.60156-4.2969 1.7969-1 1.1875-1.5 2.8984-1.5 5.125v10.422h-7.25v-22.641h7.25v3.7188c0.92578-1.4766 1.9883-2.5547 3.1875-3.2344 1.207-0.6875 2.6562-1.0312 4.3438-1.0312 0.23828 0 0.5 0.011719 0.78125 0.03125 0.28906 0.023438 0.70312 0.070312 1.2344 0.14062z"/>
  </symbol>
  <symbol id="a" overflow="visible">
   <path d="m26.078-11.375v2.0625h-16.922c0.17578 1.6992 0.78906 2.9766 1.8438 3.8281 1.0508 0.84375 2.5195 1.2656 4.4062 1.2656 1.5195 0 3.0781-0.22266 4.6719-0.67188 1.5938-0.45703 3.2344-1.1445 4.9219-2.0625v5.5781c-1.7109 0.64844-3.4219 1.1367-5.1406 1.4688-1.7109 0.33203-3.418 0.5-5.125 0.5-4.0938 0-7.2773-1.0391-9.5469-3.125-2.2734-2.082-3.4062-5.0039-3.4062-8.7656 0-3.6875 1.1133-6.5859 3.3438-8.7031 2.2266-2.125 5.2969-3.1875 9.2031-3.1875 3.5625 0 6.4102 1.0742 8.5469 3.2188 2.1328 2.1484 3.2031 5.0117 3.2031 8.5938zm-7.4375-2.4062c0-1.375-0.40234-2.4844-1.2031-3.3281-0.80469-0.84375-1.8555-1.2656-3.1562-1.2656-1.3984 0-2.5312 0.39844-3.4062 1.1875-0.875 0.79297-1.4219 1.9297-1.6406 3.4062z"/>
  </symbol>
  <symbol id="j" overflow="visible">
   <path d="m13.625-10.188c-1.5117 0-2.6484 0.25781-3.4062 0.76562-0.76172 0.51172-1.1406 1.2656-1.1406 2.2656 0 0.91797 0.30078 1.6367 0.90625 2.1562 0.61328 0.52344 1.4688 0.78125 2.5625 0.78125 1.3633 0 2.5078-0.48828 3.4375-1.4688 0.92578-0.97656 1.3906-2.2031 1.3906-3.6719v-0.82812zm11.047-2.7344v12.922h-7.2969v-3.3594c-0.96875 1.375-2.0625 2.3828-3.2812 3.0156-1.2109 0.625-2.6797 0.9375-4.4062 0.9375-2.3438 0-4.25-0.67969-5.7188-2.0469-1.4609-1.375-2.1875-3.1562-2.1875-5.3438 0-2.6445 0.91016-4.5859 2.7344-5.8281 1.8203-1.2383 4.6875-1.8594 8.5938-1.8594h4.2656v-0.57812c0-1.1445-0.45312-1.9844-1.3594-2.5156-0.89844-0.53125-2.3047-0.79688-4.2188-0.79688-1.543 0-2.9805 0.15625-4.3125 0.46875-1.3359 0.3125-2.5742 0.77734-3.7188 1.3906v-5.5156c1.5391-0.375 3.0938-0.66016 4.6562-0.85938 1.5625-0.19531 3.125-0.29688 4.6875-0.29688 4.082 0 7.0312 0.80859 8.8438 2.4219 1.8125 1.6172 2.7188 4.2305 2.7188 7.8438z"/>
  </symbol>
  <symbol id="b" overflow="visible">
   <path d="m11.375-29.062v6.4219h7.4688v5.1719h-7.4688v9.6094c0 1.0547 0.20703 1.7656 0.625 2.1406 0.41406 0.36719 1.2422 0.54688 2.4844 0.54688h3.7188v5.1719h-6.2031c-2.8555 0-4.8828-0.59375-6.0781-1.7812-1.1875-1.1953-1.7812-3.2227-1.7812-6.0781v-9.6094h-3.5938v-5.1719h3.5938v-6.4219z"/>
  </symbol>
  <symbol id="i" overflow="visible">
   <path d="m18.875-19.328v-12.125h7.2812v31.453h-7.2812v-3.2812c-1 1.3438-2.1016 2.3281-3.2969 2.9531-1.1992 0.61328-2.5859 0.92188-4.1562 0.92188-2.793 0-5.0859-1.1094-6.875-3.3281-1.793-2.2188-2.6875-5.0703-2.6875-8.5625 0-3.4883 0.89453-6.3438 2.6875-8.5625 1.7891-2.2188 4.082-3.3281 6.875-3.3281 1.5625 0 2.9414 0.32031 4.1406 0.95312 1.207 0.625 2.3125 1.5938 3.3125 2.9062zm-4.7656 14.656c1.5508 0 2.7344-0.5625 3.5469-1.6875 0.8125-1.1328 1.2188-2.7812 1.2188-4.9375s-0.40625-3.7969-1.2188-4.9219c-0.8125-1.1328-1.9961-1.7031-3.5469-1.7031-1.543 0-2.7188 0.57031-3.5312 1.7031-0.8125 1.125-1.2188 2.7656-1.2188 4.9219s0.40625 3.8047 1.2188 4.9375c0.8125 1.125 1.9883 1.6875 3.5312 1.6875z"/>
  </symbol>
  <symbol id="g" overflow="visible">
   <path d="m15.516-4.6719c1.5508 0 2.7344-0.5625 3.5469-1.6875 0.82031-1.1328 1.2344-2.7812 1.2344-4.9375s-0.41406-3.7969-1.2344-4.9219c-0.8125-1.1328-1.9961-1.7031-3.5469-1.7031-1.543 0-2.7305 0.57031-3.5625 1.7031-0.82422 1.1367-1.2344 2.7773-1.2344 4.9219 0 2.1484 0.41016 3.7891 1.2344 4.9219 0.83203 1.1367 2.0195 1.7031 3.5625 1.7031zm-4.7969-14.656c0.98828-1.3125 2.0859-2.2812 3.2969-2.9062 1.2188-0.63281 2.6133-0.95312 4.1875-0.95312 2.7891 0 5.082 1.1094 6.875 3.3281 1.7891 2.2188 2.6875 5.0742 2.6875 8.5625 0 3.4922-0.89844 6.3438-2.6875 8.5625-1.793 2.2188-4.0859 3.3281-6.875 3.3281-1.5742 0-2.9688-0.3125-4.1875-0.9375-1.2109-0.63281-2.3086-1.6133-3.2969-2.9375v3.2812h-7.25v-31.453h7.25z"/>
  </symbol>
  <symbol id="h" overflow="visible">
   <path d="m0.5-22.641h7.2344l6.0938 15.359 5.1719-15.359h7.2344l-9.5156 24.781c-0.96094 2.5195-2.0781 4.2812-3.3594 5.2812-1.2734 1.0078-2.9492 1.5156-5.0312 1.5156h-4.1875v-4.75h2.2656c1.2266 0 2.1172-0.19922 2.6719-0.59375 0.5625-0.38672 1-1.0859 1.3125-2.0938l0.20312-0.625z"/>
  </symbol>
  <symbol id="f" overflow="visible">
   <path d="m3.4688-22.641h7.25v22.234c0 3.0312-0.73047 5.3438-2.1875 6.9375-1.4609 1.6016-3.5703 2.4062-6.3281 2.4062h-3.5781v-4.75h1.25c1.375 0 2.3164-0.3125 2.8281-0.9375 0.50781-0.61719 0.76562-1.8359 0.76562-3.6562zm0-8.8125h7.25v5.9062h-7.25z"/>
  </symbol>
  <symbol id="c" overflow="visible">
   <path d="m26.234-13.781v13.781h-7.2812v-10.547c0-1.957-0.046875-3.3047-0.14062-4.0469-0.085938-0.73828-0.23047-1.2852-0.4375-1.6406-0.28125-0.46875-0.66797-0.83203-1.1562-1.0938-0.49219-0.25781-1.043-0.39062-1.6562-0.39062-1.5117 0-2.6992 0.58594-3.5625 1.75-0.85547 1.1562-1.2812 2.7656-1.2812 4.8281v11.141h-7.25v-22.641h7.25v3.3125c1.082-1.3125 2.2383-2.2812 3.4688-2.9062 1.2266-0.63281 2.582-0.95312 4.0625-0.95312 2.6133 0 4.5977 0.80469 5.9531 2.4062 1.3516 1.6055 2.0312 3.9375 2.0312 7z"/>
  </symbol>
  <symbol id="r" overflow="visible">
   <path d="m3.4688-22.641h7.25v22.641h-7.25zm0-8.8125h7.25v5.9062h-7.25z"/>
  </symbol>
  <symbol id="q" overflow="visible">
   <path d="m18.375-31.453v4.75h-4c-1.0312 0-1.75 0.1875-2.1562 0.5625-0.39844 0.36719-0.59375 1.0078-0.59375 1.9219v1.5781h6.1875v5.1719h-6.1875v17.469h-7.2344v-17.469h-3.6094v-5.1719h3.6094v-1.5781c0-2.457 0.6875-4.2734 2.0625-5.4531 1.375-1.1875 3.5-1.7812 6.375-1.7812z"/>
  </symbol>
  <symbol id="e" overflow="visible">
   <path d="m14.25-18c-1.6055 0-2.8281 0.57812-3.6719 1.7344-0.84375 1.1484-1.2656 2.8047-1.2656 4.9688 0 2.168 0.42188 3.8281 1.2656 4.9844 0.84375 1.1484 2.0664 1.7188 3.6719 1.7188 1.5703 0 2.7734-0.57031 3.6094-1.7188 0.84375-1.1562 1.2656-2.8164 1.2656-4.9844 0-2.1641-0.42188-3.8203-1.2656-4.9688-0.83594-1.1562-2.0391-1.7344-3.6094-1.7344zm0-5.1875c3.8945 0 6.9375 1.0547 9.125 3.1562 2.1875 2.1055 3.2812 5.0156 3.2812 8.7344s-1.0938 6.6328-3.2812 8.7344c-2.1875 2.1055-5.2305 3.1562-9.125 3.1562-3.9062 0-6.9648-1.0508-9.1719-3.1562-2.1992-2.1016-3.2969-5.0156-3.2969-8.7344s1.0977-6.6289 3.2969-8.7344c2.207-2.1016 5.2656-3.1562 9.1719-3.1562z"/>
  </symbol>
  <symbol id="p" overflow="visible">
   <path d="m24.453-18.875c0.91406-1.4062 2.0039-2.4727 3.2656-3.2031 1.2578-0.73828 2.6445-1.1094 4.1562-1.1094 2.5938 0 4.5703 0.80469 5.9375 2.4062 1.3633 1.6055 2.0469 3.9375 2.0469 7v13.781h-7.2812v-11.797c0.007813-0.17578 0.019531-0.35938 0.03125-0.54688 0.007813-0.1875 0.015625-0.45703 0.015625-0.8125 0-1.6016-0.24219-2.7656-0.71875-3.4844-0.46875-0.71875-1.2305-1.0781-2.2812-1.0781-1.375 0-2.4375 0.57031-3.1875 1.7031-0.74219 1.125-1.125 2.7617-1.1562 4.9062v11.109h-7.2812v-11.797c0-2.5078-0.21484-4.125-0.64062-4.8438-0.42969-0.71875-1.1953-1.0781-2.2969-1.0781-1.3984 0-2.4688 0.57031-3.2188 1.7031-0.75 1.1367-1.125 2.7617-1.125 4.875v11.141h-7.2812v-22.641h7.2812v3.3125c0.88281-1.2695 1.8984-2.2266 3.0469-2.875 1.1562-0.65625 2.4258-0.98438 3.8125-0.98438 1.5625 0 2.9414 0.38281 4.1406 1.1406 1.207 0.75 2.1172 1.8086 2.7344 3.1719z"/>
  </symbol>
  <symbol id="o" overflow="visible">
   <path d="m26.234-13.781v13.781h-7.2812v-10.516c0-1.9766-0.046875-3.3359-0.14062-4.0781-0.085938-0.73828-0.23047-1.2852-0.4375-1.6406-0.28125-0.46875-0.66797-0.83203-1.1562-1.0938-0.49219-0.25781-1.043-0.39062-1.6562-0.39062-1.5117 0-2.6992 0.58594-3.5625 1.75-0.85547 1.1562-1.2812 2.7656-1.2812 4.8281v11.141h-7.25v-31.453h7.25v12.125c1.082-1.3125 2.2383-2.2812 3.4688-2.9062 1.2266-0.63281 2.582-0.95312 4.0625-0.95312 2.6133 0 4.5977 0.80469 5.9531 2.4062 1.3516 1.6055 2.0312 3.9375 2.0312 7z"/>
  </symbol>
  <symbol id="n" overflow="visible">
   <path d="m3.7969-30.172h8.6875l10.984 20.688v-20.688h7.375v30.172h-8.6875l-10.984-20.703v20.703h-7.375z"/>
  </symbol>
  <symbol id="m" overflow="visible">
   <path d="m3.2344-8.8125v-13.828h7.2812v2.2656c0 1.2305-0.011719 2.7734-0.03125 4.625-0.011719 1.8555-0.015625 3.0898-0.015625 3.7031 0 1.8242 0.046875 3.1367 0.14062 3.9375 0.09375 0.80469 0.25391 1.3867 0.48438 1.75 0.30078 0.46875 0.6875 0.83594 1.1562 1.0938 0.47656 0.25 1.0312 0.375 1.6562 0.375 1.5078 0 2.6914-0.57812 3.5469-1.7344 0.86328-1.1562 1.2969-2.7656 1.2969-4.8281v-11.188h7.2344v22.641h-7.2344v-3.2812c-1.0859 1.3242-2.2422 2.3047-3.4688 2.9375-1.2188 0.625-2.5625 0.9375-4.0312 0.9375-2.6055 0-4.5938-0.80078-5.9688-2.4062-1.3672-1.6016-2.0469-3.9375-2.0469-7z"/>
  </symbol>
  <symbol id="l" overflow="visible">
   <path d="m3.7969-30.172h12.922c3.832 0 6.7734 0.85547 8.8281 2.5625 2.0625 1.6992 3.0938 4.125 3.0938 7.2812 0 3.168-1.0312 5.6055-3.0938 7.3125-2.0547 1.6992-4.9961 2.5469-8.8281 2.5469h-5.1406v10.469h-7.7812zm7.7812 5.6406v8.4219h4.3125c1.5078 0 2.6719-0.36328 3.4844-1.0938 0.82031-0.73828 1.2344-1.7812 1.2344-3.125 0-1.3516-0.41406-2.3906-1.2344-3.1094-0.8125-0.72656-1.9766-1.0938-3.4844-1.0938z"/>
  </symbol>
  <symbol id="k" overflow="visible">
   <path d="m21.766-21.922v5.8906c-0.98047-0.66406-1.9688-1.1602-2.9688-1.4844-0.99219-0.32031-2.0156-0.48438-3.0781-0.48438-2.0234 0-3.5938 0.58984-4.7188 1.7656-1.125 1.1797-1.6875 2.8242-1.6875 4.9375 0 2.1172 0.5625 3.7617 1.6875 4.9375 1.125 1.1797 2.6953 1.7656 4.7188 1.7656 1.1328 0 2.207-0.16406 3.2188-0.5 1.0195-0.33203 1.9609-0.83203 2.8281-1.5v5.9219c-1.1367 0.41797-2.2891 0.72656-3.4531 0.9375-1.1562 0.21875-2.3242 0.32812-3.5 0.32812-4.0859 0-7.2773-1.0469-9.5781-3.1406-2.3047-2.1016-3.4531-5.0195-3.4531-8.75 0-3.7266 1.1484-6.6406 3.4531-8.7344 2.3008-2.1016 5.4922-3.1562 9.5781-3.1562 1.1875 0 2.3516 0.10938 3.5 0.32812 1.1562 0.21094 2.3047 0.52344 3.4531 0.9375z"/>
  </symbol>
 </defs>
 <g>
  <path d="m9.1875 304.58-1.5742 60.176c8.457 3.9219 17.309 6.918 26.406 8.9414 105.78 13.906 138.73 10.844 138.73 10.844l26.402-52.891s-142.37-53.883-156.52-54.051c-4.8867-0.003906-33.441 26.98-33.441 26.98z"/>
  <path d="m48.172 273.54c0-0.74609 3.3125 0 11.672-1.1602v0.003906c4.9727-0.86328 10.023-1.1719 15.066-0.91406 1.6758-0.15625 3.3672-0.15625 5.0469 0 33.109 9.4375 66.219 17.215 98.828 27.316 29.703 8.543 60.219 13.926 91.051 16.059 8.793 1.2227 17.715-1.0703 24.832-6.375 4.7773-4.6328 7.8906-10.715 8.8555-17.297 3.4766-18.375-8.2773-29.715-4.4688-33.109 4.8828-4.3047 31.535 11.258 45.441 36.586 4.3867 8.2773 11.34 16.555 10.016 28.059-1.9023 16.555-7.6992 19.617-18.457 25.742-13.738 7.6992-31.949 6.375-43.785 5.6289h-0.003906c-24.199-1.3594-48.016-6.6406-70.52-15.645-82.191-37.496-174.98-60.508-173.57-64.895z"/>
  <path d="m85.172 267.17 8.2773-8.2773c18.121 11.273 40.191 14.285 60.672 8.2773 15.727-3.8906 32.117-10.348 63.402-40.145 8.0664-7.6914 15.332-16.176 21.688-25.328 14.746 6.7812 28.637 15.281 41.387 25.328 0 0-41.387 74.496-55.707 74.496-10.098 0-16.555-1.9023-75.32-15.477v-0.003907c-21.875-4.8125-43.391-11.117-64.398-18.871z"/>
  <path d="m416.26 301.52s-0.66406 26.488-48.836 53.555c-12.746 7.1992-28.059 40.227-26.488 44.613 3.9727 11.504 225.55 12.914 292.18 3.6406 33.855-4.7188 50.82-12.414 54.215-20.527s-16.555-42.129-16.555-42.129c-5.4648-1.1602-14.566 10.594-19.285 11.422-63.816 11.422-122.25 22.93-198.65 2.8125-10.098-2.6484 2.3984-40.145 2.3984-40.145z"/>
  <path d="m54.879 185.8c-8.2773-7.7812-24.004-6.125-24.832-3.5586 0 1.3242 3.4766 2.2344 9.6836 7.7812 5.9414 5.5859 10.652 12.352 13.824 19.863 2.4297 6.5156 4.4492 13.18 6.0391 19.949 2.9805 7.0352 8.2773 9.3516 31.949 22.844 19.785 11.258 19.535 11.258 19.949 11.258 22.68 8.8555 49.168-3.6406 60.008-9.0234l0.003906 0.003907c16.426-6.9219 30.918-17.746 42.211-31.539 7.1953-10.082 15.527-19.305 24.832-27.48 2.6484-1.8203-5.9609-5.1328-10.266-4.8008-9.0234 0.66406-12 11.258-21.688 23.508-9.6797 12.25-21.184 19.285-38.648 29.633-14.32 8.2773-21.602 12.332-32.527 13.242h-0.003907c-9.8945 0.58984-19.793-1.0508-28.969-4.8008-10.438-3.2109-19.949-8.8906-27.73-16.555-5.2461-5.457-9.5039-11.785-12.582-18.703-8.5234-16.969-3.7227-24.75-11.254-31.621z"/>
  <path d="m6.043 368.98-1.8203 9.0234s32.613 11.836 50.16 11.34c52.062-1.7383 78.469 3.9727 123.33 8.2773 44.863 4.3047 51.98 5.7109 154.29 16.555v-0.003906c57.367 6.9062 115.14 9.918 172.91 9.0234 42.301 0.21484 84.566-2.5508 126.48-8.2773 21.645-2.3438 42.984-6.9766 63.652-13.824 2.8984-1.6562-2.8125-13.328-2.8125-13.328s-29.465 16.555-95.766 22.348c-13.574 1.0742-25.906 2.9805-74.496 3.5586-106.69 1.4062-158.84-4.1367-191.04-8.2773-75.242-10.344-89.645-11.418-154.7-15.969-54.051-3.7266-108.76-7.1172-135.41-9.6836l-0.003906-0.003906c-12.086-1.7148-23.82-5.3438-34.762-10.758z"/>
  <path d="m695.53 405.89c-11.508 2.4844-94.113 21.605-155.11 23.59-66.738 3.5977-133.66 1.5742-200.06-6.043-18.043-2.2344-28.887-4.0547-84.922-11.422-41.387-5.3789-61.996-8.2773-83.766-10.266-53.055-5.2148-72.258-8.2773-91.051-7.6992-50.242 2.2344-77.059-11.59-77.059-11.59v0.007812c-1.9688 12.625-3.0469 25.375-3.2266 38.156 5.6953 3.1953 11.75 5.6992 18.043 7.4492 28.227 8.2773 45.109 3.5586 53.555 5.875 0 0 0 7.4492-2.9805 7.3672-12.105 0.25-24.207-0.55469-36.172-2.3984-18.211-2.3984-22.598-1.9023-32.199-7.1172 0.24609 6.5391 1.4453 13.008 3.5586 19.203 3.5586 9.3516 29.055 19.781 34.352 20.691 103.21 17.961 520.8 5.3789 562.85 1.8203 27.559-0.17969 54.578-7.6602 78.301-21.688 7.3984-4.2773 13.207-10.844 16.555-18.703 3.1445-8.5273 7.1211-28.477-0.66016-27.234zm-607.05 40.145-0.57812-3.9727h-7.4492l-2.6484 3.9727h-4.2227l12.332-17.797h3.7266l2.8125 17.797zm6.2891 0 4.7188-17.629h3.8906l-4.7188 17.629zm20.691-6.043 2.8164 6.043h-4.3867l-2.7305-5.6289h-2.8984l-1.4883 5.6289h-3.8906l4.7188-17.629h6.375-0.003907c2.0352-0.19922 4.0625 0.42578 5.6289 1.7383 0.87109 0.97656 1.3438 2.2461 1.3242 3.5586-0.089844 3.0977-2.3945 5.6836-5.4648 6.125z"/>
  <path d="m185.66 446.04h-59.098c-1.5742 0-1.5742-5.875 0-5.875h62.16c1.6562-0.33203-1.4062 5.875-3.0625 5.875z"/>
  <path d="m82.688 438.5h4.7188l-0.82812-5.793z"/>
  <path d="m113.98 431.71h-3.3125l-1.3242 5.0508h3.4766c2.3984 0 4.2227-0.99219 4.2227-2.8984 0.015626-0.51172-0.16016-1.0156-0.49609-1.4062-0.72656-0.57031-1.6484-0.83984-2.5664-0.74609z"/>
  <path d="m290.03 183.23c0-5.7109-13.41-13.41-26.156-11.672-11.008 1.3281-22.348 10.184-21.438 17.883 0 3.3125 2.7305 4.9648 15.312 13.656 22.516 15.809 21.934 15.395 23.672 16.555 10.348 6.5391 18.953 11.59 26.902 16.059 19.535 11.09 21.191 11.34 39.73 21.688 8.2773 4.5508 21.688 12.168 38.57 22.516 20.363 12.5 18.625 12.5 26.488 16.555 18.043 9.1055 19.285 5.1328 44.613 15.312v-0.003906c12.133 4.9141 24.609 8.9258 37.332 12 5.7227 1.5039 11.801 0.82422 17.051-1.9023 3.2656-1.9883 5.9062-4.8555 7.6133-8.2773 1.2812-2.2031 1.8594-4.7461 1.6562-7.2852-2.3906-6.7891-9.5938-10.605-16.555-8.7734-4.3047 1.4883-3.4766 5.5469-10.43 11.176-2.8633 3.0039-6.7109 4.8828-10.844 5.2969-4.7734 0.22266-9.2656-2.2773-11.586-6.457-2.4844-6.7891 8.2773-11.754 8.2773-22.93 0-7.6133-5.6289-14.816-8.7734-14.402-3.1445 0.41406-2.0703 3.1445-5.6289 9.6016s-6.5391 11.754-11.672 12.828c-3.7266 0.82812-9.0234 0-10.43-3.1445-2.3164-5.1328 8.2773-11.34 6.043-18.129v0.003907c-1.1836-3.5195-4.5664-5.8203-8.2773-5.6289-3.8086 0.49609-4.5508 5.1328-11.672 14.484-7.1172 9.3516-9.1055 8.8555-10.016 8.8555v0.003906c-4.3359-0.30859-7.9453-3.4492-8.8555-7.6992-1.0742-11.176 4.5508-9.6016 2.3984-16.555-0.91016-3.1445-6.457-7.1172-8.7734-6.125-3.6406 1.5742-1.9023 8.6914-5.2969 10.016-4.7383 0.51562-9.3672-1.6562-12-5.6289-2.2344-5.2148 2.6484-9.0234 0-13.656-1.9688-3.7812-6.3516-5.625-10.43-4.3867-2.3984 1.4883-0.57812 4.9648-3.5586 9.2695-1.8984 2.7617-4.9375 4.5234-8.2773 4.8008-3.6953-0.25-6.9141-2.6016-8.2773-6.043-2.0703-4.9648 1.9883-7.8633 0-14.484-0.66406-2.8984-2.6484-7.0352-5.2148-7.1992-2.5664-0.16406-3.6406 5.4648-8.2773 6.457v-0.003907c-3.7773 0.43359-7.4297-1.5078-9.1875-4.8828-2.3984-5.2969 4.3047-9.9336 1.9883-16.059-1.1602-3.0625-4.5508-6.043-7.1992-5.6289-4.6367 0.74609-3.3945 10.926-10.098 14.484l-0.003906 0.003906c-4.3516 2.4375-9.8008 1.6211-13.242-1.9883-2.8125-5.5469 10.594-14.898 7.2852-21.273l-0.003906 0.003907c-1.0469-1.7695-2.8477-2.957-4.8828-3.2305-5.4648-0.82812-7.4492 6.7891-15.645 9.6016-5.5781 1.9336-11.75 1.0391-16.555-2.3984-1.4883-1.1602-4.8008-3.8086-4.8008-7.1992 1.4922-7.7852 18.875-9.8516 19.121-16.062z"/>
  <path d="m226.55 183.4c-1.9883 0-3.5586-9.7656-0.57812-18.707h-0.003906c3.0273-7.5859 8.2812-14.078 15.066-18.625 6.4141-5.3438 13.766-9.4414 21.688-12.082 1.3242-0.41406 11.59-3.8086 12.582-1.8203 0.99219 1.9883-3.3945 4.8828-8.2773 9.1055-8.2773 6.5391-11.176 7.6133-18.129 13.242-4.4727 3.2773-8.5039 7.1172-12.004 11.422-7.6953 9.6836-8.5234 17.793-10.344 17.465z"/>
  <path d="m281.34 132.83-12 12.664s16.555 33.109 30.707 31.289c5.0664-0.55078 9.7656-2.9023 13.242-6.625 1.1992-1.6992 2.1992-3.5312 2.9805-5.4609z"/>
  <path d="m265.12 146.65s-13.656 10.676-18.129 14.484h0.003907c-5.3398 4.2969-10 9.375-13.824 15.062-1.0742 2.1523-4.8008 10.18-4.8008 10.18l10.266 1.8203-0.003906 0.003906c1.9648-4.457 4.375-8.6992 7.2031-12.664 4.1758-4.0781 9.3828-6.9375 15.062-8.2773 4.8008 0 16.555 5.2969 18.625 3.0625 3.6406-3.2305-14.402-23.672-14.402-23.672z"/>
  <path d="m318.92 164.12c-1.9023 4.4688 9.8516 5.0508 8.2773 10.676-3.7891 13.695-8.6055 27.086-14.402 40.062-0.91016 2.3164-5.875 8.9375 0 9.9336 7.5312 1.3242 9.7656-8.2773 10.844-9.5195 8.8555-12.914 11.672-15.23 13.16-24.832 1.3672-4.3945 0.76562-9.1641-1.6562-13.078-2.5664-5.4727-5.9141-10.547-9.9297-15.066-0.98047-0.91797-2.375-1.2539-3.6641-0.87891-1.293 0.375-2.2891 1.4023-2.6289 2.7031z"/>
  <path d="m323.22 171.32c-1.8203-1.4062-5.3789 0-12.332 3.0625-8.4922 3.5312-16.414 8.3008-23.508 14.152-7.1992 5.875-10.926 9.0234-10.266 12.332 0.66406 3.3125 5.9609 5.6289 9.9336 6.043 3.9727 0.41406 6.043-0.91016 18.707-8.2773 10.43-5.793 11.258-8.8555 12.332-10.18 7.1211-8.3594 8.5273-14.402 5.1328-17.133z"/>
  <path d="m344.91 189.45c2.4844-0.99219 9.1055 6.207 11.672 14.402 2.1992 7.5352 1.2148 15.645-2.7344 22.43-2.7305 4.3867-8.2773 10.348-11.918 8.9375-3.6406-1.4062-1.0742-10.18-0.99219-11.754-0.92188-7.4375-1.2812-14.938-1.0781-22.43 1.4102-8.6094 3.2305-10.676 5.0508-11.586z"/>
  <path d="m360.06 202.85c-1.7383 1.8203 1.2422 7.0352 1.6562 19.285 0.41406 14.98-3.8086 22.68 0 29.219 0 0.74609 1.9883 3.3125 4.1367 3.5586 4.0547 0.49609 7.1172-6.8711 7.5312-7.7812v0.003907c2.0508-6.8438 2.4766-14.07 1.2422-21.109-0.16406-3.6797-0.80469-7.3242-1.9023-10.84-3.3125-8.7773-10.516-14.734-12.664-12.336z"/>
  <path d="m419.57 284.38c-3.6406-1.4062-4.8008-9.6836-0.57812-27.562h-0.003907c0.019531-5.3477 0.43359-10.688 1.2422-15.977 0-1.2422 0.91016-3.0625 2.3164-3.5586 2.7305-0.91016 6.2891 3.5586 6.9531 4.3867 2.2344 2.7305 1.4883 3.6406 3.3125 10.348 1.8203 6.7031 0 12.25-4.7188 24.832-2.7305 7.3672-3.5586 9.3516-8.5234 7.5312z"/>
  <path d="m451.77 258.97c-1.4883 2.1523 0.49609 12.582 0 17.051-0.49609 4.4688-6.043 7.0352-5.1328 11.09 0.33594 2.168 2.2812 3.7148 4.4688 3.5586 6.8711 0.49609 7.6133-2.9805 10.266-8.2773 3.9453-5.9023 5.8359-12.941 5.3789-20.027-0.66406-3.8906-4.0547-5.2148-9.1875-5.5469-2.1523-0.14453-4.2617 0.63672-5.793 2.1523z"/>
  <path d="m486.7 284.46s-12.5 16.059-11.672 22.516c0 1.6562 1.9023 3.3945 5.6289 5.4648 3.7266 2.0703 9.8516-4.1367 12.332-5.6289v-0.003906c3.9453-2.9805 7.4062-6.5547 10.262-10.594 3.3125-3.9727-9.1016-13.242-16.551-11.754z"/>
  <path d="m494.48 283.39c-5.1328-1.4883-8.8555 1.4062-10.016 0-1.1602-1.4062 0-4.1367 1.9883-5.6289 5.4648-4.1367 20.277 2.1523 21.688 10.016 0 2.0703 0 4.5508-1.2422 4.8008-1.2422 0.25-2.8984-3.7266-8.2773-7.1992v-0.003906c-1.25-0.90625-2.6523-1.5781-4.1406-1.9844z"/>
  <path d="m391.43 216.18c-5.3789 5.1328 2.8984 3.2266 2.1523 15.395-0.91016 14.98-5.5469 22.266-2.7305 29.055 0.91406 1.5703 2.1562 2.9258 3.6406 3.9727 5.4648 4.1367 5.0508-0.66406 7.4492-7.0352 2.4219-6.7383 3.5742-13.867 3.3945-21.027 0.20312-3.6602-0.078125-7.332-0.82812-10.926-2.0664-9.0195-10.676-11.34-13.078-9.4336z"/>
  <path d="m376.86 217.17c2.1523-1.2422 7.1992 2.0703 9.6016 4.2227 0.74609 0.57812 3.7266 1.6562 3.6406 4.2227-0.41406 9.9336 2.4844 9.9336-1.2422 18.625-1.2422 2.9805-7.1172-2.3164-9.2695-4.4688-2.3984-16.145-4.7188-21.523-2.7305-22.602z"/>
  <path d="m410.05 229.26c2.1523-1.1602 8.2773 2.5664 8.2773 5.1328 0.042969 7.9375-0.98828 15.844-3.0625 23.504-0.99219 3.0625-5.9609-0.82812-8.2773-2.8984 0.49609-15.891 0.99219-24.664 3.0625-25.738z"/>
  <path d="m436.95 243c1.7383-1.7383 9.6016 0 10.18 2.1523 1.5781 4.9766 1.918 10.258 0.99219 15.395 0 3.2266-7.4492 4.4688-10.098 2.9805-2.4844-14.402-2.6484-18.953-1.0742-20.527z"/>
  <path d="m410.46 300.52c-1.7383-8.2773-121.34-70.438-122.5-68.699-6.375 9.6016-42.129 65.391-51.648 74.496-1.3242 1.3242 42.047 5.1328 50.078 0.66406v-0.003906c6.7148-3.7305 11.531-10.141 13.242-17.633 0.77344-7.8906-0.1875-15.855-2.8125-23.34-1.8203-7.1992-3.2266-10.348-1.5742-12 1.6562-1.6562 9.7656 0.66406 15.23 3.1445 6.8789 3.1992 13.242 7.4102 18.871 12.496 5.1562 4.6562 9.7422 9.9062 13.656 15.645 5.0117 7.2305 9.0742 15.078 12.086 23.344 1.0117 2.6914 1.8164 5.457 2.4023 8.2734 1.1133 6.2188 0.54297 12.621-1.6562 18.543-2.832 6.3906-7.6133 11.723-13.656 15.23-8.457 5.2734-18.109 8.3203-28.062 8.8555-12.246 0.89063-24.559 0.082032-36.582-2.3984-14.105-1.4961-27.992-4.6094-41.387-9.2734-19.949-7.4492-30.129-12-30.129-12l-23.672 49.664s22.266 3.3125 62.246 6.8711c52.559 4.6367 81.449 9.6016 87.574 6.7031 6.125-2.8984 4.7188-26.074 30.129-47.262 10.844-9.1055 21.023-12.746 35.758-28.969 13.156-14.406 12.988-19.867 12.41-22.352zm-196.09 61.5c-1.6016 0-2.8984-1.2969-2.8984-2.8984 0-1.5977 1.2969-2.8945 2.8984-2.8945 0.77344-0.023438 1.5234 0.27344 2.0742 0.82031 0.54688 0.55078 0.84375 1.3008 0.82422 2.0742 0 0.76953-0.30859 1.5039-0.85156 2.0508-0.54297 0.54297-1.2773 0.84766-2.0469 0.84766zm105.54 14.32c-1.6016 0-2.8984-1.2969-2.8984-2.8984 0-1.6016 1.2969-2.8984 2.8984-2.8984 1.5977 0 2.8945 1.2969 2.8945 2.8984 0 0.76953-0.30469 1.5039-0.84766 2.0469-0.54297 0.54297-1.2812 0.85156-2.0469 0.85156z"/>
  <path d="m662.75 338.43c0-4.0547-16.555-5.3789-31.371-7.8633-59.844-10.016-91.547-24.168-103.63-24.086-7.1992 0 4.8008 16.555-16.555 21.023-23.176 5.1328-44.613-12.582-50.242-10.43-5.6289 2.1523-8.2773 32.281-2.4844 33.109 61.406 11.098 124.39 10.086 185.41-2.9805 17.219-4.6367 18.957-7.6172 18.875-8.7734zm-178.7-4.5508-0.003906-0.003906c-1.5977 0-2.8945-1.2969-2.8945-2.8945 0.24219-1.4375 1.4844-2.4844 2.9375-2.4844s2.6953 1.0469 2.9375 2.4844c-0.12891 1.5469-1.4258 2.7344-2.9805 2.7305zm13.16 12.25v-0.003906c-1.4375-0.23828-2.4883-1.4805-2.4883-2.9375 0-1.4531 1.0508-2.6953 2.4883-2.9375 0.86328-0.14453 1.7461 0.097656 2.418 0.66406 0.66797 0.56641 1.0547 1.3984 1.0547 2.2734 0 0.87891-0.38672 1.7109-1.0547 2.2773-0.67188 0.56641-1.5547 0.80859-2.418 0.66016zm17.133-8.9375v-0.003906c-1.6016 0-2.8984-1.2969-2.8984-2.8984 0-1.5977 1.2969-2.8945 2.8984-2.8945 1.5977 0 2.8945 1.2969 2.8945 2.8945 0 1.6016-1.2969 2.8984-2.8945 2.8984zm15.395 6.043v-0.003906c-1.2031 0-2.293-0.72656-2.7539-1.8398s-0.20312-2.3945 0.64844-3.2461c0.85156-0.85547 2.1328-1.1094 3.2461-0.64844 1.1133 0.46094 1.8398 1.5469 1.8398 2.7539-0.089844 1.582-1.3984 2.8164-2.9805 2.8125zm0-17.547v-0.003906c-1.5977 0-2.8984-1.2969-2.8984-2.8984 0.24219-1.4336 1.4844-2.4844 2.9414-2.4844 1.4531 0 2.6953 1.0508 2.9375 2.4844-0.089844 1.5664-1.4102 2.7773-2.9805 2.7305zm5.875-9.6836 0.003907-0.007812c-0.77734 0.023438-1.5273-0.27344-2.0742-0.82031-0.55078-0.55078-0.84766-1.3008-0.82422-2.0742 0-1.6016 1.2969-2.8984 2.8984-2.8984 1.5977 0 2.8945 1.2969 2.8945 2.8984-0.085938 1.5352-1.3594 2.7344-2.8945 2.7305zm7.2852 14.98v-0.003906c0.24219-1.4375 1.4844-2.4844 2.9375-2.4844 1.457 0 2.6992 1.0469 2.9414 2.4844-0.24219 1.4336-1.4844 2.4844-2.9414 2.4844-1.4531 0-2.6953-1.0508-2.9375-2.4844zm5.1328 19.863v-0.003906c-1.6133 0-2.9336-1.2812-2.9805-2.8945 0.24219-1.4375 1.4844-2.4883 2.9375-2.4883 1.457 0 2.6992 1.0508 2.9414 2.4883-0.089844 1.5352-1.3594 2.7305-2.8984 2.7305zm8.2773-27.316c-0.78125 0.019532-1.543-0.27344-2.1016-0.82031-0.5625-0.54688-0.87891-1.2969-0.87891-2.0781 0.24219-1.4336 1.4844-2.4844 2.9375-2.4844 1.457 0 2.6992 1.0508 2.9414 2.4844-0.039062 0.81641-0.42188 1.5781-1.0508 2.0977-0.63281 0.52344-1.4531 0.75-2.2617 0.63281zm8.2773 15.477c-0.77734 0.023437-1.5273-0.27344-2.0742-0.82422-0.54688-0.54688-0.84766-1.2969-0.82422-2.0742 0-1.5977 1.2969-2.8945 2.8984-2.8945 1.5977 0 2.8984 1.2969 2.8984 2.8945-0.042969 0.78516-0.40234 1.5195-0.99609 2.0352-0.59375 0.51562-1.3672 0.76562-2.1523 0.69922zm8.2773-11.422c-0.86328 0.14453-1.75-0.097656-2.418-0.66406-0.67187-0.56641-1.0586-1.3984-1.0586-2.2734 0-0.87891 0.38672-1.7109 1.0586-2.2773 0.66797-0.56641 1.5547-0.80859 2.418-0.66406 1.4336 0.24219 2.4844 1.4844 2.4844 2.9414 0 1.4531-1.0508 2.6953-2.4844 2.9375zm11.59 18.539h-0.003906c-1.4336-0.23828-2.4844-1.4805-2.4844-2.9375 0-1.4531 1.0508-2.6953 2.4844-2.9375 0.86719-0.14453 1.75 0.097656 2.4219 0.66406 0.66797 0.56641 1.0547 1.3984 1.0547 2.2734 0 0.87891-0.38672 1.7109-1.0547 2.2773-0.67188 0.56641-1.5547 0.80859-2.4219 0.66016zm8.2773-12.25h-0.003907c-1.6133 0-2.9336-1.2812-2.9766-2.8945 0.23828-1.4375 1.4805-2.4844 2.9375-2.4844 1.4531 0 2.6953 1.0469 2.9375 2.4844-0.042969 0.76953-0.39062 1.4883-0.96484 2-0.57422 0.51172-1.3281 0.77734-2.0977 0.73047zm17.133 4.0547v0.003906c-1.6016 0-2.8984-1.2969-2.8984-2.8984 0-1.6016 1.2969-2.8984 2.8984-2.8984 1.5977 0 2.8945 1.2969 2.8945 2.8984-0.042968 0.76953-0.39062 1.4883-0.96484 2-0.57422 0.51563-1.3281 0.77734-2.0977 0.73047z"/>
  <path d="m60.34 235.55c-9.8516-12.828-4.6367-22.762-17.301-36.668-3.4766-3.8906-8.9375-9.8516-13.988-8.2773-1.7383 0-7.0352 2.3164-11.918 30.211-2.4844 14.566-2.5664 18.871-4.3047 35.676-2.8984 27.398-6.9531 39.316-3.2266 41.387 2.0703 0.91016 4.2227-2.3164 16.141-11.836 6.1211-5.668 13.035-10.406 20.527-14.07 10.594-3.6406 14.07 0.82812 25.906-3.2266 3.8906-1.3242 14.734-5.0508 15.148-10.762 0.082031-7.9492-16.305-7.9492-26.984-22.434zm-44.945-3.4766c5.4883-2.5703 11.16-4.7305 16.969-6.457 4.6367-1.0742-17.961 14.898-17.961 14.898"/>
  <use y="605.207031" xlink:href="#s"/>
  <use x="30.371094" y="605.207031" xlink:href="#d"/>
  <use x="50.78125" y="605.207031" xlink:href="#a"/>
  <use x="78.851562" y="605.207031" xlink:href="#j"/>
  <use x="106.777344" y="605.207031" xlink:href="#b"/>
  <use x="126.5625" y="605.207031" xlink:href="#a"/>
  <use x="154.632812" y="605.207031" xlink:href="#i"/>
  <use x="198.664062" y="605.207031" xlink:href="#g"/>
  <use x="228.289062" y="605.207031" xlink:href="#h"/>
  <use x="269.675781" y="605.207031" xlink:href="#f"/>
  <use x="283.859375" y="605.207031" xlink:href="#a"/>
  <use x="311.929688" y="605.207031" xlink:href="#c"/>
  <use x="341.394531" y="605.207031" xlink:href="#c"/>
  <use x="370.855469" y="605.207031" xlink:href="#r"/>
  <use x="399.449219" y="605.207031" xlink:href="#g"/>
  <use x="429.074219" y="605.207031" xlink:href="#a"/>
  <use x="457.144531" y="605.207031" xlink:href="#c"/>
  <use x="486.605469" y="605.207031" xlink:href="#c"/>
  <use x="516.070312" y="605.207031" xlink:href="#a"/>
  <use x="544.140625" y="605.207031" xlink:href="#b"/>
  <use x="563.921875" y="605.207031" xlink:href="#b"/>
  <use y="646.589844" xlink:href="#q"/>
  <use x="18.003906" y="646.589844" xlink:href="#d"/>
  <use x="38.414062" y="646.589844" xlink:href="#e"/>
  <use x="66.847656" y="646.589844" xlink:href="#p"/>
  <use x="124.378906" y="646.589844" xlink:href="#b"/>
  <use x="144.164062" y="646.589844" xlink:href="#o"/>
  <use x="173.625" y="646.589844" xlink:href="#a"/>
  <use x="216.105469" y="646.589844" xlink:href="#n"/>
  <use x="250.738281" y="646.589844" xlink:href="#e"/>
  <use x="279.171875" y="646.589844" xlink:href="#m"/>
  <use x="308.636719" y="646.589844" xlink:href="#c"/>
  <use x="352.507812" y="646.589844" xlink:href="#l"/>
  <use x="382.839844" y="646.589844" xlink:href="#d"/>
  <use x="403.25" y="646.589844" xlink:href="#e"/>
  <use x="431.683594" y="646.589844" xlink:href="#f"/>
  <use x="445.867187" y="646.589844" xlink:href="#a"/>
  <use x="473.9375" y="646.589844" xlink:href="#k"/>
  <use x="498.46875" y="646.589844" xlink:href="#b"/>
 </g>
</svg>
